<svg xmlns="http://www.w3.org/2000/svg" xmlns:xlink="http://www.w3.org/1999/xlink" x="0px" y="0px"
	 viewBox="0 0 283.465 68.031">
<path fill="#23562A" d="M217.201,31.243c0,0-5.264,0-6.931,0c-1.671,0-2.949,0.42-4.273,1.946
	c-1.324,1.528-9.792,11.287-9.792,11.287V31.243h-9.612v33.811c0.002,1.057,0.867,1.92,1.92,1.92h7.692V50.771
	c0,0,7.207,11.271,8.468,13.247c1.268,1.98,2.522,2.956,5.407,2.956c2.881,0,7.896,0,7.896,0l-13.488-21.085L217.201,31.243
	L217.201,31.243z M176.536,31.243c0,0-20.841,0-21.41,0l0,0v32.536c0,1.781,1.76,3.194,3.609,3.195h17.801
	c1.057,0,1.924-0.867,1.924-1.924v-4.61h-12.282c-0.797,0-1.442-0.658-1.442-1.456v-7.517h10.948v-6.53h-10.948v-7.164h13.725
	v-4.605C178.46,32.108,177.593,31.243,176.536,31.243L176.536,31.243z M244.173,31.243c0,0-20.843,0-21.411,0l0,0v32.536
	c0,1.781,1.76,3.194,3.609,3.195h17.803c1.057,0,1.922-0.867,1.922-1.924v-4.61h-12.282c-0.795,0-1.441-0.658-1.441-1.456v-7.517
	h10.946v-6.53h-10.946v-7.164h13.723v-4.605C246.095,32.108,245.23,31.243,244.173,31.243L244.173,31.243z M107.906,31.243h-9.612
	v33.811c0,1.055,0.87,1.92,1.924,1.92h7.688V31.243L107.906,31.243z M87.617,31.243c0,0-20.851,0-21.413,0l0,0v32.536
	c0,1.856,1.763,3.194,3.61,3.195h17.802c1.053,0,1.92-0.867,1.92-1.924v-4.61H77.259c-0.799,0-1.442-0.658-1.442-1.456v-7.517
	h10.944v-6.53H75.817v-7.164h13.721v-4.605C89.538,32.108,88.671,31.243,87.617,31.243L87.617,31.243z M56.495,31.243h-9.609v13.694
	h-8.407V31.243H27.322v1.404c0,0,1.523,0.574,1.523,2.396v31.931h9.635V51.471h8.407v15.504h9.609V31.243L56.495,31.243z
	 M145.416,31.243v33.811c0,1.055-0.867,1.92-1.92,1.92h-5.897l-12.98-20.478c0,0,0.27,1.697,0.27,3.83c0,2.13,0,16.648,0,16.648
	h-7.186V31.243c0,0,1.134,0,4.655,0c2.379,0,4.111,0.98,5.356,2.941c1.057,1.662,10.868,17.104,10.868,17.104
	s-0.352-1.052-0.352-3.87c0-2.824,0-16.174,0-16.174H145.416L145.416,31.243z M283.465,31.243v1.404c0,0-1.524,0.607-1.524,2.396
	l0.009,30.011c0,1.055-0.86,1.92-1.913,1.92h-5.899l-12.98-20.478c0,0,0.27,1.697,0.27,3.83c0,2.13,0,16.648,0,16.648h-7.185V31.243
	c0,0,1.135,0,4.657,0c2.376,0,4.11,0.98,5.355,2.941c1.057,1.662,10.866,17.104,10.866,17.104s-0.351-1.052-0.351-3.87
	c0-2.824,0-16.174,0-16.174H283.465z"/>
<path fill="#EF3824" d="M9.415,44.252c-0.483,0.352-1.113-0.106-0.928-0.663c0.263-0.793,5.093-15.673,5.093-15.673L0.254,18.23
	c-0.481-0.352-0.232-1.088,0.352-1.085c0.837,0.005,16.474,0,16.474,0s4.835-14.869,5.088-15.666
	c0.178-0.558,0.965-0.569,1.144,0.002c0.255,0.797,5.091,15.664,5.091,15.664s15.636,0.005,16.472,0
	c0.586-0.003,0.836,0.733,0.352,1.085l-7.95,5.777h-9.404l-2.906-8.939l-2.904,8.939h-9.408l7.612,5.527l-2.908,8.942
	C17.359,38.476,9.898,43.901,9.415,44.252z"/>
</svg>
