<?xml version="1.0" encoding="utf-8"?>
<!-- Generator: Adobe Illustrator 21.1.0, SVG Export Plug-In . SVG Version: 6.00 Build 0)  -->
<svg version="1.1" id="Layer_1" xmlns="http://www.w3.org/2000/svg" xmlns:xlink="http://www.w3.org/1999/xlink" x="0px" y="0px"
	 viewBox="0 0 400 400" style="enable-background:new 0 0 400 400;" xml:space="preserve">
<style type="text/css">
	.st0{fill:#FFFFFF;}
</style>
<g>
	<path class="st0" d="M68.8,179.4c0-26.5,30.1-54.7,30.1-83.6c0-21.7-19.8-38.5-37.9-41.5c6,3.6,12.6,12.6,12.6,24.1
		c0,27.1-30.1,53.5-30.1,86.6c0,25.9,18,39.1,34.3,41.5C72.4,201.7,68.8,192,68.8,179.4z"/>
	<path class="st0" d="M95.2,201.7c7.2-1.8,14.4-2.4,22.9-2.4h24.7V245c0,51.1-20.5,72.8-74,72.8V334c72.2,0,103.5-27.1,103.5-81.8
		V180h-77V201.7z"/>
	<path class="st0" d="M220.9,180h-37.3v63.2c0,25.3-1.8,37.9-8.4,52.9h45.1c36.1,0,59.5-25.3,59.5-60.2
		C279.9,208.9,261.8,180,220.9,180z M220.3,276.9h-9.6c1.8-9,2.4-19.2,2.4-33.7v-43.9c0,0,5.4,0,9,0c14.4,0,27.1,12.6,27.1,36.7
		C249.2,256.4,242,276.9,220.3,276.9z"/>
	<path class="st0" d="M334,276.9h-18c0.6-7.2,1.2-15.6,1.2-26.5v-3.6h9c8.4,0,15.6,0.6,22.9,2.4v-22.9c-7.2,1.8-14.4,2.4-22.9,2.4
		h-9v-28.9H331c8.4,0,15.6,0.6,22.9,2.4v-21.7h-66.2V251c0,21.1-1.2,33.1-5.4,45.7h75.2v-21.7C350.3,275.7,343,276.9,334,276.9z"/>
</g>
</svg>
